Coordinates
version=1
nRows=22
nColumns=24
inDegrees=yes

Units are S.I. units (second, meters, Newtons, ...)
If the header above contains a line with 'inDegrees', this indicates whether rotational values are in degrees (yes) or radians (no).

endheader
time	pelvis_tilt	pelvis_list	pelvis_rotation	pelvis_tx	pelvis_ty	pelvis_tz	hip_flexion_r	hip_adduction_r	hip_rotation_r	knee_angle_r	ankle_angle_r	subtalar_angle_r	mtp_angle_r	hip_flexion_l	hip_adduction_l	hip_rotation_l	knee_angle_l	ankle_angle_l	subtalar_angle_l	mtp_angle_l	lumbar_extension	lumbar_bending	lumbar_rotation
      2.13000000	      6.84876242	    -29.01922314	    -84.93639433	      0.60284346	      1.04122512	     -0.40422636	    -18.60046321	     -7.41861086	     -7.67152823	    -64.65838848	      4.77891360	     -6.49526656	      0.00000000	    -32.70915700	      7.13063644	     12.79819588	      1.76497003	      0.54268242	    -31.51026603	      0.00000000	    -47.13299954	     -6.39179129	     -2.41246861
      2.14000000	      6.20717799	    -28.98828289	    -84.95049886	      0.60394964	      1.04183635	     -0.40601079	    -17.26995522	     -6.79395725	     -7.85452469	    -64.31460385	      5.92570937	     -6.41305709	      0.00000000	    -33.40867604	      6.43084214	     12.89366872	      2.21597173	      0.76068699	    -31.54264428	      0.00000000	    -47.12218801	     -5.64686331	     -2.53985427
      2.15000000	      5.44084965	    -28.95871629	    -85.00787373	      0.60515357	      1.04237467	     -0.40755710	    -16.04467319	     -6.06438534	     -8.04468128	    -63.58843073	      7.02443908	     -6.01044668	      0.00000000	    -34.13348613	      5.62324535	     12.96810827	      2.70892418	      1.07830240	    -31.70392482	      0.00000000	    -47.03424274	     -4.77041196	     -2.58322037
      2.16000000	      4.89855671	    -28.93040426	    -85.02351933	      0.60633329	      1.04265701	     -0.40937048	    -14.82664693	     -5.58141451	     -8.29498358	    -62.76211134	      8.12117669	     -5.95194305	      0.00000000	    -34.84316697	      5.03486979	     13.06164370	      3.15243215	      1.26160449	    -31.71880941	      0.00000000	    -47.03353722	     -4.07314228	     -2.74808296
      2.17000000	      4.27062150	    -28.90808344	    -85.03387584	      0.60749926	      1.04283985	     -0.41107811	    -13.71512030	     -5.00652467	     -8.57979799	    -61.59279537	      9.11743169	     -5.62403549	      0.00000000	    -35.58396598	      4.34380821	     13.15734570	      3.65458902	      1.54869567	    -31.84035397	      0.00000000	    -47.02776771	     -3.28575140	     -2.86474875
      2.18000000	      3.79249372	    -28.86339685	    -85.03419685	      0.60847097	      1.04284582	     -0.41268652	    -12.67294223	     -4.57554106	     -8.86769158	    -60.16107259	     10.06362510	     -5.47072533	      0.00000000	    -36.29799859	      3.80249024	     13.24495928	      4.10292546	      1.74850097	    -31.89806519	      0.00000000	    -46.98561591	     -2.68034699	     -3.02314965
      2.19000000	      3.29411118	    -28.82479781	    -85.04226664	      0.60942214	      1.04274862	     -0.41437149	    -11.70796898	     -4.13725730	     -9.19056449	    -58.46356484	     10.88963249	     -5.22138922	      0.00000000	    -37.02697384	      3.23898012	     13.33055734	      4.59168576	      1.98637515	    -31.99164755	      0.00000000	    -46.99251367	     -2.03833246	     -3.17759405
      2.20000000	      2.82212035	    -28.81597993	    -85.03432792	      0.61032534	      1.04251238	     -0.41597577	    -10.88465464	     -3.71210340	     -9.52385561	    -56.47487368	     11.57169136	     -4.96899782	      0.00000000	    -37.80293130	      2.68584569	     13.41160862	      5.08890734	      2.21008590	    -32.10556010	      0.00000000	    -47.02097510	     -1.41043156	     -3.32987126
      2.21000000	      2.46534705	    -28.72987404	    -85.01929728	      0.61112220	      1.04206608	     -0.41758725	    -10.06648019	     -3.39945230	     -9.83067371	    -54.24085267	     12.16334423	     -4.84050684	      0.00000000	    -38.49287496	      2.25881498	     13.44821680	      5.57007601	      2.39268797	    -32.15652756	      0.00000000	    -46.99740208	     -0.91189870	     -3.51533205
      2.22000000	      2.11813954	    -28.65515532	    -85.02268424	      0.61176847	      1.04150958	     -0.41911836	     -9.37201203	     -3.09525499	    -10.16278642	    -51.70983655	     12.54159611	     -4.68428535	      0.00000000	    -39.19828683	      1.84472864	     13.47464916	      6.03876933	      2.61828813	    -32.20213531	      0.00000000	    -46.98227166	     -0.44498068	     -3.69622266
      2.23000000	      1.80204593	    -28.56021145	    -84.98858189	      0.61242926	      1.04079985	     -0.42057920	     -8.78641580	     -2.80326250	    -10.50344746	    -48.88767167	     12.76988582	     -4.57317987	      0.00000000	    -39.88790763	      1.44006793	     13.47261352	      6.51791003	      2.84481995	    -32.20095086	      0.00000000	    -46.94963244	      0.02162312	     -3.89307188
      2.24000000	      1.48616352	    -28.52997158	    -84.94655590	      0.61300931	      1.04005195	     -0.42193012	     -8.41463642	     -2.48511270	    -10.87744150	    -45.73580553	     12.71791675	     -4.53181142	      0.00000000	    -40.64624757	      1.02050666	     13.48696439	      6.96653294	      3.12337394	    -32.14805805	      0.00000000	    -46.97010792	      0.49847399	     -4.09217984
      2.25000000	      1.25691807	    -28.51740250	    -84.91566485	      0.61334796	      1.03917272	     -0.42321401	     -8.17929155	     -2.22975556	    -11.24410318	    -42.33038844	     12.45652537	     -4.61676337	      0.00000000	    -41.42385906	      0.68489527	     13.48353682	      7.38412080	      3.44394684	    -32.03357980	      0.00000000	    -47.02148752	      0.83691814	     -4.29342642
      2.26000000	      1.16148038	    -28.38901295	    -84.86614820	      0.61364426	      1.03800282	     -0.42437964	     -7.92500488	     -2.11370390	    -11.59892216	    -38.75003548	     12.11817278	     -4.62444722	      0.00000000	    -42.06796219	      0.49889887	     13.45725170	      7.75785028	      3.74511951	    -31.89077304	      0.00000000	    -46.94782707	      1.05650979	     -4.52665448
      2.27000000	      1.03291570	    -28.41276832	    -84.82662118	      0.61374939	      1.03690980	     -0.42537661	     -8.00673801	     -1.86043985	    -11.81869698	    -34.81341016	     11.43596227	     -4.96857820	      0.00000000	    -42.87467662	      0.27553862	     13.14120824	      8.09262699	      4.48464672	    -31.11226875	      0.00000000	    -47.01059845	      1.30111822	     -4.72827942
      2.28000000	      1.11454598	    -28.20325007	    -84.68401695	      0.61387363	      1.03536414	     -0.42627464	     -7.90098275	     -1.88240941	    -12.29499526	    -30.87499289	     10.98071080	     -4.72442509	      0.00000000	    -43.41566942	      0.20521868	     13.24783454	      8.38193484	      4.81465281	    -30.96789237	      0.00000000	    -46.83773224	      1.37026001	     -5.08300684
      2.29000000	      1.21585575	    -28.12197772	    -84.50668556	      0.61388245	      1.03381730	     -0.42697583	     -8.07131443	     -1.83642418	    -12.67664805	    -26.71862860	     10.39931441	     -4.61376488	      0.00000000	    -44.11410292	      0.10682895	     13.34512487	      8.67401949	      5.23361244	    -30.71524203	      0.00000000	    -46.76407335	      1.44415417	     -5.44913507
      2.30000000	      1.39721666	    -28.01513382	    -84.27614303	      0.61370019	      1.03214284	     -0.42757252	     -8.31459078	     -1.80558303	    -12.96547919	    -22.43735709	      9.79210537	     -4.52246432	      0.00000000	    -44.76733790	      0.04796890	     13.41789368	      8.92584684	      5.70001091	    -30.37062560	      0.00000000	    -46.67795443	      1.43077326	     -5.79872581
      2.31000000	      1.64521328	    -27.88626191	    -84.07408974	      0.61342005	      1.03029594	     -0.42798096	     -8.58264926	     -1.81866480	    -13.11023583	    -18.13954858	      9.18219760	     -4.45995132	      0.00000000	    -45.39101129	      0.07654560	     13.50034762	      9.10557721	      6.20247176	    -29.94528432	      0.00000000	    -46.54193105	      1.33389078	     -6.20608747
      2.32000000	      2.00129734	    -27.65049581	    -83.85977520	      0.61296758	      1.02824149	     -0.42826858	     -8.77165411	     -1.93850381	    -13.16682235	    -13.91355260	      8.64242001	     -4.27604673	      0.00000000	    -45.87535939	      0.20835729	     13.66252269	      9.21472214	      6.60162518	    -29.64996520	      0.00000000	    -46.30728154	      1.09883401	     -6.60513671
      2.33000000	      2.35866281	    -27.55692501	    -83.60685015	      0.61236665	      1.02625185	     -0.42830532	     -9.31860946	     -1.89060349	    -12.16594075	     -9.39806397	      7.41038827	     -5.77281134	      0.00000000	    -46.49528110	      0.32159728	     13.35935110	      9.24345185	      7.63318704	    -28.32541234	      0.00000000	    -46.19707561	      0.89053023	     -6.98104004
      2.34000000	      2.94705686	    -27.30875409	    -83.22865196	      0.61193827	      1.02398082	     -0.42827356	     -9.58874974	     -2.24285602	    -12.07812581	     -5.49141402	      6.99819493	     -5.58943937	      0.00000000	    -46.96095332	      0.55650101	     13.75148817	      9.27024007	      7.93645476	    -28.12228915	      0.00000000	    -45.94987797	      0.51928831	     -7.53481526
